<?xml version="1.0" encoding="utf-8"?>
<svg version="1.1" id="Camada_1" x="0px" y="0px" viewBox="0 0 72.5 207" style="enable-background:new 0 0 72.5 207;" xmlns="http://www.w3.org/2000/svg">
  <style type="text/css">
	.st0{fill:#43a5df;}
	.st1{fill:#E7DFEF;}
</style>
  <g>
    <path class="st0" d="M63,27c0,17.5,0,36.5,0,54h-9v9h-9v-9c-4.5,0-13.5,0-18,0v9h-9v-9H9c0-17.5,0-36.5,0-54H0 c0,56.9,0,114.1,0,171h9v9c17.5,0,36.5,0,54,0v-9h9c0-56.9,0-114.1,0-171H63z"/>
    <path class="st1" d="M54,36c-14.4,0-30.6,0-45,0c0,14.4,0,30.6,0,45h9v9c11.3,0,24.7,0,36,0v-9h9c0-14.4,0-30.6,0-45H54z"/>
    <text style="fill: rgb(51, 51, 51); font-family: Arial, sans-serif; font-size: 7.5px; font-weight: 700; white-space: pre;" transform="matrix(3.143168, 0, 0, 2.946342, -61.086903, -323.285706)" x="28.303" y="170.72">E</text>
  </g>
</svg>