<?xml version="1.0" encoding="utf-8"?>
<svg version="1.1" id="Camada_1" x="0px" y="0px" viewBox="0 0 72.5 207" style="enable-background:new 0 0 72.5 207;" xmlns="http://www.w3.org/2000/svg">
  <style type="text/css">
	.st0{fill:#000000;}
	.st1{fill:#E7DFEF;}
</style>
  <g>
    <g>
      <path class="st0" d="M63.5,18c0,17.5,0,36.5,0,54h-9v9c-11.3,0-24.7,0-36,0v-9h-9c0-17.5,0-36.5,0-54h-9c0,59.9,0,120.1,0,180h9v9 c17.5,0,36.5,0,54,0v-9h9c0-59.9,0-120.1,0-180H63.5z"/>
      <path class="st1" d="M54.5,27c-14.4,0-30.6,0-45,0c0,14.4,0,30.6,0,45h9v9c11.3,0,24.7,0,36,0v-9h9c0-14.4,0-30.6,0-45H54.5z"/>
    </g>
    <text style="fill: rgb(255, 255, 255); font-family: Arial, sans-serif; font-size: 9px; font-weight: 700; white-space: pre;" transform="matrix(3.907785, 0, 0, 3.332175, -453.512024, -377.925842)" x="122.605" y="168.469">J</text>
    <text style="white-space: pre; fill: rgb(51, 51, 51); font-family: Arial, sans-serif; font-size: 9px;" x="129.037" y="165.124"> </text>
    <text style="white-space: pre; fill: rgb(51, 51, 51); font-family: Arial, sans-serif; font-size: 9px;" x="127.751" y="166.153"> </text>
    <text style="white-space: pre; fill: rgb(51, 51, 51); font-family: Arial, sans-serif; font-size: 9px;" x="193.62" y="163.066"> </text>
  </g>
</svg>